<?xml version="1.0" encoding="utf-8"?>
<!-- Generator: Adobe Illustrator 24.0.1, SVG Export Plug-In . SVG Version: 6.00 Build 0)  -->
<svg version="1.1" id="Layer_1" xmlns="http://www.w3.org/2000/svg" xmlns:xlink="http://www.w3.org/1999/xlink" x="0px" y="0px"
	 viewBox="0 0 22 23" style="enable-background:new 0 0 22 23;" xml:space="preserve">
<style type="text/css">
	.st0{fill:#444444;}
</style>
<title>data-download-outline-24</title>
<g id="VD">
	<g id="EXPLORE_05" transform="translate(-141.000000, -686.000000)">
		<g id="Group-17" transform="translate(110.000000, 673.000000)">
			<g id="data-download-outline-24" transform="translate(32.000000, 14.000000)">
				<g id="Path">
					<path class="st0" d="M20,22H0c-0.6,0-1-0.4-1-1v-6c0-0.6,0.4-1,1-1s1,0.4,1,1v5h18v-5c0-0.6,0.4-1,1-1s1,0.4,1,1v6
						C21,21.6,20.6,22,20,22z"/>
				</g>
				<path class="st0" d="M16.7,8.3c-0.4-0.4-1-0.4-1.4,0L11,12.6V0c0-0.6-0.4-1-1-1S9-0.6,9,0v12.6L4.7,8.3c-0.4-0.4-1-0.4-1.4,0
					s-0.4,1,0,1.4l6,6c0.1,0.1,0.2,0.2,0.3,0.2C9.7,16,9.9,16,10,16s0.3,0,0.4-0.1c0.1-0.1,0.2-0.1,0.3-0.2l6-6
					C17.1,9.3,17.1,8.7,16.7,8.3z"/>
			</g>
		</g>
	</g>
</g>
</svg>
